<?xml version="1.0" standalone="no"?><!DOCTYPE svg PUBLIC "-//W3C//DTD SVG 1.1//EN" "http://www.w3.org/Graphics/SVG/1.1/DTD/svg11.dtd"><svg t="1766303068907" class="icon" viewBox="0 0 1024 1024" version="1.1" xmlns="http://www.w3.org/2000/svg" p-id="3657" width="128" height="128" xmlns:xlink="http://www.w3.org/1999/xlink"><path d="M554.666667 303.189333c96 20.394667 170.666667 107.733333 170.666666 208.810667 0 60.416-21.376 114.474667-60.202666 152.277333l59.52 61.141334C780.117333 671.402667 810.666667 595.626667 810.666667 512c0-147.413333-113.493333-273.621333-256-295.125333V85.333333L384 256l170.666667 170.666667V303.189333z m-81.152 504.576v125.738667l170.666666-170.666667-170.666666-170.666666v129.152C375.552 702.549333 298.666667 614.485333 298.666667 512c0-60.416 21.376-114.517333 60.202666-152.32L299.392 298.538667C243.882667 352.554667 213.333333 428.373333 213.333333 512c0 148.864 115.712 276.181333 260.181334 295.765333z" fill="#000000" p-id="3658"></path></svg>